<?xml version="1.0" standalone="no"?>
<!DOCTYPE svg PUBLIC "-//W3C//DTD SVG 20010904//EN"
 "http://www.w3.org/TR/2001/REC-SVG-20010904/DTD/svg10.dtd">
<svg version="1.0" xmlns="http://www.w3.org/2000/svg"
 width="512.000000pt" height="512.000000pt" viewBox="0 0 512.000000 512.000000"
 preserveAspectRatio="xMidYMid meet">

<g transform="translate(0.000000,512.000000) scale(0.100000,-0.100000)"
fill="#000000" stroke="none">
<path d="M2320 5109 c-491 -47 -982 -247 -1365 -556 -123 -99 -261 -235 -361
-355 l-76 -91 57 -30 c66 -36 143 -116 176 -183 55 -115 53 -45 56 -1547 l4
-1387 -78 1 c-43 0 -101 4 -130 8 l-52 7 19 -25 c40 -55 182 -207 267 -283
781 -706 1900 -868 2840 -409 233 114 419 240 606 409 88 79 267 270 267 285
0 4 -26 7 -57 7 -112 0 -212 41 -296 118 -94 88 -132 180 -125 307 2 41 6 76
9 80 4 3 25 -4 49 -16 56 -29 136 -30 183 0 57 35 67 69 67 225 l0 136 38 2
c112 6 242 -16 313 -53 54 -27 125 -93 160 -147 15 -24 30 -38 34 -32 17 28
89 246 115 349 107 425 107 837 0 1261 -31 124 -108 350 -119 350 -3 0 -15
-16 -26 -36 -27 -51 -110 -122 -178 -155 -72 -34 -169 -51 -262 -47 l-70 3 -5
140 c-4 117 -8 146 -25 175 -41 70 -133 89 -220 45 -27 -13 -51 -22 -55 -19
-3 3 -5 49 -5 103 0 92 2 101 38 173 42 87 107 152 190 192 58 28 179 49 228
39 29 -5 30 -4 21 13 -6 10 -49 61 -95 112 -539 594 -1343 907 -2137 831z
m-850 -971 c172 -40 310 -177 366 -363 17 -56 19 -144 21 -1439 l3 -1379 -107
6 c-284 17 -436 118 -500 333 -16 54 -18 150 -23 1154 -5 913 -8 1101 -20
1134 -16 43 -61 93 -97 107 -42 16 -126 10 -168 -11 -22 -11 -42 -20 -46 -20
-4 0 -13 25 -20 56 -25 112 20 255 104 331 50 44 145 90 217 102 61 11 201 5
270 -11z m1070 -4 c177 -50 298 -177 357 -379 16 -56 18 -155 21 -1429 l3
-1369 -108 6 c-169 11 -278 44 -370 114 -44 34 -102 123 -127 197 -21 60 -21
78 -26 1161 -6 1184 -3 1130 -58 1204 -48 64 -150 81 -235 38 l-45 -23 -13 43
c-16 59 -7 177 18 235 26 57 91 129 146 162 42 24 124 51 182 60 51 7 197 -4
255 -20z m1450 -1580 l0 -1597 -112 6 c-190 10 -288 46 -384 142 -68 67 -107
140 -123 229 -8 41 -11 424 -11 1225 0 993 2 1175 15 1229 55 232 239 358 528
361 l87 1 0 -1596z m477 144 c-6 -111 -26 -179 -70 -244 -55 -82 -126 -119
-252 -131 l-65 -6 0 237 0 236 196 0 197 0 -6 -92z"/>
<path d="M133 3370 c-39 -115 -77 -264 -97 -385 -70 -411 -36 -845 97 -1235
l32 -95 3 452 c1 249 1 657 0 905 l-3 453 -32 -95z"/>
</g>
</svg>
